<?xml version="1.0" encoding="utf-8"?>
<!-- Generator: Adobe Illustrator 16.0.4, SVG Export Plug-In . SVG Version: 6.00 Build 0)  -->
<!DOCTYPE svg PUBLIC "-//W3C//DTD SVG 1.1//EN" "http://www.w3.org/Graphics/SVG/1.1/DTD/svg11.dtd">
<svg version="1.1" id="Layer_1" xmlns="http://www.w3.org/2000/svg" xmlns:xlink="http://www.w3.org/1999/xlink" x="0px" y="0px"
	 width="792px" height="612px" viewBox="0 0 792 612" enable-background="new 0 0 792 612" xml:space="preserve">
<path opacity="0.2" fill="#00456A" d="M448.492,155.509l-0.811,5.13l-1.291-5.056C447.08,155.539,447.785,155.523,448.492,155.509z"
	/>
<polygon opacity="0.2" fill="#00456A" points="445.941,171.664 447.682,160.639 450.516,171.664 "/>
<path fill="#00456A" d="M404.98,398.568c5.981,5.727,5.258,16.189-1.617,23.371l-2.356,2.461c-6.875,7.18-17.298,8.359-23.279,2.633
	l-62.471-59.812c-5.981-5.728-5.256-16.192,1.619-23.372l2.356-2.461c6.875-7.181,17.298-8.359,23.279-2.634L404.98,398.568z"/>
<path fill="#00456A" d="M482.781,272.438c0,38.228-30.988,59.301-69.215,59.301c-38.226,0-69.216-21.073-69.216-59.301
	s45.568-86.453,83.794-86.453C466.371,185.984,482.781,234.21,482.781,272.438z"/>
<path fill="#00456A" d="M573.061,241.573c0,28.763-8.979,55.589-37.742,55.589c-28.762,0-43.613-26.826-43.613-55.589
	c0-28.764,7.645-55.589,36.406-55.589C556.875,185.984,573.061,212.81,573.061,241.573z"/>
<circle fill="#00456A" cx="613.561" cy="309.062" r="22.678"/>
<path opacity="0.2" fill="#00456A" d="M398.99,583.864c-29.655,10.049-100.379,1.709-129.269,1.709
	c-26.686,0-70.125,9.421-88.186-7.484c-19.71-18.436-16.68-72.061-16.68-101.176c0-55.814,66.375-102.794,122.189-102.794
	c6.976,0,23.521-13.14,23.521-13.14c10.68,2.189,24.614,16.649,33.78,21.914c18,10.351,33.06,24.346,29.505,45.495
	c-2.431,14.49-21.975,34.726-21.975,49.966c0,12.074,26.76,65.549,22.889,76.274c-1.244,3.45,20.896,5.085,24.135,5.085
	C406.701,559.714,410.271,580.038,398.99,583.864z"/>
<path opacity="0.2" fill="#00456A" d="M603.52,309.06c-2.569,18.7-20.239,31.931-44.829,39.45c-2.021,0.62-4.08,1.2-6.19,1.74
	c-1.56,0.4-8.18,0.11-9.75,0.5c-5.07,1.25-14.37-0.14-19.28,1.3c-6.67,1.96-7.899,3.84-12.67,6.82c-0.34,0.21-0.7,0.42-1.05,0.63
	c-3.93,2.31-9.52,4.85-13,7.25c-5.98,4.17-12.36,4.49-17.8,7.37c-2.17,1.149-4.28,2.34-6.36,3.56c-5.52,3.2-10.77,6.521-16.189,9.38
	c-1.261,0.681-2.521,1.32-3.811,1.94c-4.01,1.93-8.149,3.57-12.58,4.69c-4.109,1.05-8.45,1.649-13.18,1.649
	c-0.26,0-0.53,0-0.811-0.01c-68.25-0.36-100.879-46.74-100.879-115.28c0-30.52,10.97-58.48,29.2-80.14l23.72-92.73l90.49-86.69
	l-35.85,86.69l12.38,48.4l1.29,5.06l0.81-5.13c0.83-0.02,1.681-0.03,2.53-0.03c4.56,0,9,0.22,13.3,0.66
	c12.88,1.32,24.61,4.54,35.09,9.45c2.94,1.36,5.78,2.86,8.521,4.48c33.66,19.91,52.41,58.53,52.41,105.35
	c0,1.44-16.78,8.41-13.98,10.96C553.45,294.05,604.11,304.86,603.52,309.06z"/>
<line fill="#00456A" stroke="#00456A" stroke-width="16" stroke-linecap="round" stroke-miterlimit="10" x1="128.145" y1="592.192" x2="636.238" y2="592.192"/>
<polygon opacity="0.2" fill="#00456A" points="450.516,171.664 445.941,171.664 447.682,160.639 "/>
<polygon opacity="0.4" fill="#00456A" points="441.871,59.466 420.461,111.232 436.777,175.001 404.146,175.001 371.517,184.148 
	387.833,111.232 "/>
<polygon opacity="0.2" fill="#00456A" points="447.682,160.639 444.626,171.664 445.941,171.664 "/>
<path opacity="0.2" fill="#00456A" d="M492.637,73.31l15.299,96.764c-15.809-9.375-34.92-14.595-56.91-14.595
	c-0.854,0-1.695,0.016-2.533,0.03l13.02-82.199l111.555-52.815L492.637,73.31z"/>
<path opacity="0.4" fill="#00456A" d="M492.637,73.31l6.779,92.279c-10.484-4.904-22.215-8.131-35.086-9.45l5.537-80.745
	l66.869-31.08L492.637,73.31z"/>
<path opacity="0.2" fill="#00456A" stroke="#00456A" stroke-width="2" stroke-miterlimit="10" d="M144.71,499.967
	c0,56.69,55.262,88.228,46.994,88.228c-3.76,0-19.325,8.498-37.451-0.002c-29.825-13.984-33.695-33.564-37.509-65.345
	c-6.755-56.288,32.177-135.946,40.444-135.946S144.71,443.274,144.71,499.967z"/>
<path opacity="0.3" fill="#00456A" d="M575.061,369.165c-8.646,3.57-60.786,10.578-114.98,21.995c-6.73,1.41-12.73,1.859-18.07,1.53
	c4.431-1.12,8.57-2.761,12.58-4.69c1.29-0.62,2.55-1.26,3.811-1.94c5.42-2.859,10.67-6.18,16.189-9.38
	c4.95,0.61,9.771,0.62,13.87-0.25C509.86,371.93,556.801,367.915,575.061,369.165z"/>
<path fill="#00456A" d="M567.95,379.38c0,0-8.43-8.38-8.45-8.38c-15.536-0.91-51.64,1.93-73.04,6.43c-4.1,0.87-8.92,0.86-13.87,0.25
	c2.08-1.22,4.19-2.41,6.36-3.56c5.439-2.88,11.819-3.2,17.8-7.37c3.48-2.4,9.07-4.94,13-7.25c0.35-0.21,0.71-0.42,1.05-0.63
	c4.181-2.5,7.92-4.94,12.67-6.82c4.91-1.439,14.21-0.05,19.28-1.3c1.57-0.39,8.19-0.1,9.75-0.5c2.11-0.54,4.17-1.12,6.19-1.74
	c20.909,4.891,46.199,10.32,59.279,39.681C636.24,429.22,592.25,392.793,567.95,379.38z"/>
</svg>
