<?xml version="1.0" encoding="utf-8"?>
<!-- Generator: Adobe Illustrator 16.0.4, SVG Export Plug-In . SVG Version: 6.00 Build 0)  -->
<!DOCTYPE svg PUBLIC "-//W3C//DTD SVG 1.1//EN" "http://www.w3.org/Graphics/SVG/1.1/DTD/svg11.dtd">
<svg version="1.1" xmlns="http://www.w3.org/2000/svg" xmlns:xlink="http://www.w3.org/1999/xlink" x="0px" y="0px" width="612px"
	 height="792px" viewBox="0 0 612 792" enable-background="new 0 0 612 792" xml:space="preserve">
<g id="Layer_1" display="none">
	<g display="inline">
		<path fill="#FFFFFF" d="M-455.126,519.662c0-82.441,0-164.882,0-247.323c86.084,0,172.168,0,258.252,0
			c0,82.441,0,164.882,0,247.323C-282.958,519.662-369.042,519.662-455.126,519.662z M-404.269,358.379
			c0.309,3.471,0.281,6.812,0.94,10.024c8.828,43.071,30.654,79.318,63.523,109.558c12.485,11.486,21.849,10.857,33.917-1.113
			c28.438-28.208,47.07-61.568,56.658-99.568c1.872-7.419,4.111-15.271,3.396-22.676c-2.428-25.092-17.08-38.714-40.312-43.791
			c-26.985-5.896-53.883-5.26-80.64,1.263C-392.305,318.298-402.411,335.353-404.269,358.379z"/>
		<path fill-rule="evenodd" clip-rule="evenodd" d="M-404.269,358.379c1.857-23.026,11.964-40.081,37.483-46.302
			c26.757-6.523,53.654-7.16,80.64-1.263c23.231,5.077,37.884,18.699,40.312,43.791c0.716,7.405-1.523,15.257-3.396,22.676
			c-9.588,38-28.22,71.36-56.658,99.568c-12.068,11.97-21.432,12.599-33.917,1.113c-32.869-30.24-54.695-66.487-63.523-109.558
			C-403.987,365.191-403.96,361.85-404.269,358.379z"/>
	</g>
</g>
<g id="Layer_2">
	<path fill="none" stroke="#000000" stroke-miterlimit="10" d="M-501.4,156.96c-3.65,0.26-7.69,0.71-11.91,1.42
		c2.19-4.32,3.17-10.48,1.74-19.27c-1.24-7.64-4.1-18.27-7.91-26.85c-4.87-10.96-10.99-19.1-13.95-19.11
		c-2.99,0-8.98,9.07-13.41,19.35c-4.28,9.94-6.58,20.79-7.59,26.24c-3.84,20.75,5.99,27.02,13.44,28.86
		c-4.97,2.82-9.52,6.35-13.25,10.76c-7.2-5.45-12.63-15.99-8.88-36.26c1.43-7.74,4.7-23.15,10.78-37.28
		c6.29-14.59,14.8-27.49,19.05-27.49c4.21,0.02,12.9,11.58,19.82,27.16c5.41,12.18,9.47,27.29,11.23,38.14
		C-501.35,148.09-501.12,152.83-501.4,156.96z"/>
	<path fill="none" stroke="#000000" stroke-miterlimit="10" d="M-450.74,110.88c-0.71-0.41-1.41,0.02-2.1,1.62
		c-4.28,9.94-6.58,20.79-7.59,26.24c-1.65,8.89-0.78,15.13,1.33,19.49c-4.12-0.66-8.01-1.05-11.45-1.28
		c-0.23-4.26,0.1-9.17,1.15-14.85c1.43-7.74,4.7-23.15,10.78-37.28c0.3-0.69,0.6-1.23,0.89-1.64c2.08-2.84,4.27,0.5,6.42,6.15
		C-451.12,109.83-450.93,110.35-450.74,110.88z"/>
	<path fill="none" stroke="#000000" stroke-miterlimit="10" d="M-429.53,111.8l0.01,0.11c-0.04,0.05-0.07,0.11-0.11,0.16
		c0.04-0.12,0.08-0.24,0.09-0.36c0.02-0.05,0.02-0.1,0.03-0.15c0.01,0.08,0,0.16-0.02,0.23V111.8z"/>
	<path fill="none" stroke="#000000" stroke-miterlimit="10" d="M-417.5,177.83c-0.52-0.61-1.06-1.27-1.62-1.91
		c-0.19-0.21-0.37-0.42-0.56-0.63c-0.25-0.27-0.5-0.54-0.76-0.79h-0.01c-0.13,0-0.26-0.04-0.38-0.12c-0.1-0.06-0.2-0.13-0.3-0.22
		c-0.1-0.1-0.19-0.19-0.29-0.28c-0.19-0.2-0.39-0.42-0.59-0.59c-0.27-0.24-0.55-0.36-0.82-0.59c-0.92-0.77-1.87-1.49-2.84-2.18
		c-0.03-0.02-0.07-0.05-0.12-0.08c-1.32-0.93-2.68-1.78-4.08-2.59c-0.21-0.13-0.42-0.25-0.64-0.37c-0.06-0.04-0.13-0.07-0.19-0.11
		c0.39-0.11,0.78-0.22,1.18-0.35c2.61-0.88,5.32-2.35,7.56-4.78c0,0,0.01,0,0-0.01c0.35-0.37,0.68-0.77,0.99-1.19
		c0.16-0.21,0.32-0.43,0.47-0.65c0.29-0.41,0.55-0.84,0.8-1.29c0.14-0.23,0.26-0.47,0.38-0.72c0.12-0.24,0.24-0.49,0.36-0.75
		c0.08-0.18,0.16-0.35,0.23-0.54c1.77-4.22,2.45-10.03,1.16-17.99c-0.08-0.48-0.16-0.96-0.25-1.46c-0.01-0.05-0.02-0.1-0.03-0.15
		c-1.21-8.1-3.24-24.39-9.48-30.51c-0.65,1.31-1.28,2.81-1.91,4.42c0-0.02,0.01-0.04,0.01-0.06c0.02-0.07-0.13-0.14-0.13-0.21
		c0.011-0.09-0.14-0.19-0.14-0.29v-0.01c0-0.17,1-0.35,1-0.52c0,0,0,0,0-0.01c0-0.17,0-0.34,0-0.51c0-0.01,0-0.01,0-0.01
		c0-0.33,0-0.67,0-0.99c0-0.01,0-0.01,0-0.01c0-0.32,1-0.64,1-0.95c0,0,0,0,0-0.01c0-0.15-0.075-0.3-0.005-0.45
		c0.07-0.15,0.005-0.3,0.005-0.44v-0.02c0-0.01,0.04-0.03,0.03-0.04c0.01-0.01,0.024-0.02,0.024-0.03c0-0.06,0.008-0.12,0.018-0.13
		c0.01,0,0.017-0.21,0.017-0.21h-0.09v0.16c0-0.02,0.07-0.05,0.09-0.07c1.311-2.67,2.695-4.53,3.985-4.98
		c0.18-0.07,0.395-0.11,0.575-0.11h0.1c1.02,0,2.03,0.85,2.97,2.97c5.41,12.18,9.48,27.19,11.24,38.04
		C-405.38,162-410.52,172.3-417.5,177.83z"/>
	<path fill="none" stroke="#000000" stroke-miterlimit="10" d="M-410.69,227.28c-3.56,13.01-11.69,38.93-26.8,62.67
		c-15.64,24.56-36.81,46.24-47.33,46.22c-10.46-0.03-32.05-19.47-49.24-45.65c-13.45-20.48-23.55-45.88-27.92-64.12
		c-5.37-22.4-1.07-37.66,7.74-48.04c3.73-4.41,8.28-7.94,13.25-10.76c-7.45-1.84-17.28-8.11-13.44-28.86
		c1.01-5.45,3.31-16.3,7.59-26.24c4.43-10.28,10.42-19.35,13.41-19.35c2.96,0.01,9.08,8.15,13.95,19.11
		c3.81,8.58,6.67,19.21,7.91,26.85c1.43,8.79,0.45,14.95-1.74,19.27c4.22-0.71,8.26-1.16,11.91-1.42c9.88-0.74,16.91-0.2,16.91-0.2
		s5.67-0.37,13.94,0.19c3.44,0.23,7.33,0.62,11.45,1.28c-2.11-4.36-2.98-10.6-1.33-19.49c1.01-5.45,3.31-16.3,7.59-26.24
		c0.69-1.6,1.39-2.03,2.1-1.62c3.86,10.88,7.53,28.18,10.07,29.21c0.04,0.02,0.08,0.03,0.12,0.04c0.04,0.01,0.07,0.2,0.11,0.2
		s0.07,0.17,0.11,0.17c0.01,0,0.01,0,0.02,0c0.04,0,0.08-0.21,0.11-0.23c2.44-1,6.44-17.03,10.69-28.09c0-0.01,0.01-0.06,0.01-0.06
		v-0.04c0-0.01,0-0.01,0-0.01v-0.28c0-0.07,0.01-0.15,0-0.23c0.01-0.05,0-0.1,0-0.15v-0.01c0.11-0.19,0.22-0.37,0.32-0.56
		c0,0.1-0.01,0.2-0.02,0.29c0,0.07-0.01,0.14-0.03,0.21c0,0.02-0.01,0.04-0.01,0.06c0.63-1.61,1.26-3.11,1.91-4.42
		c6.24,6.12,8.27,22.41,9.48,30.51c0.01,0.05,0.02,0.1,0.03,0.15c0.07,0.53,0.15,1.02,0.22,1.47c1.28,7.94,0.61,13.75-1.13,17.98
		c-0.07,0.19-0.15,0.36-0.23,0.54c-0.12,0.26-0.24,0.51-0.36,0.75c-0.12,0.25-0.25,0.49-0.38,0.72c-0.25,0.45-0.51,0.88-0.8,1.29
		c-0.15,0.22-0.31,0.44-0.47,0.65c-0.31,0.42-0.64,0.82-0.99,1.19c0.01,0.01,0,0.01,0,0.01c-2.23,2.46-4.94,3.96-7.56,4.85
		c-0.34,0.11-0.66,0.32-0.99,0.39c-0.06,0.01-0.13,0.02-0.19,0.02c-0.01,0-0.01,0-0.02,0c0.28,0.1,0.57,0.22,0.85,0.35
		c1.4,0.63,2.76,1.57,4.08,2.59c0.05,0.03,0.09,0.06,0.12,0.08c0.97,0.77,1.92,1.57,2.84,2.33c0.27,0.23,0.55,0.23,0.82,0.45
		c0.2,0.18,0.39,0.39,0.59,0.58c0.1,0.1,0.19,0.2,0.29,0.28c0.1,0.09,0.2,0.16,0.3,0.22c0.12,0.08,0.25,0.12,0.38,0.12h0.01
		c0.26,0.25,0.51,0.52,0.76,0.79c0.19,0.21,0.37,0.42,0.56,0.63c0.55,0.64,1.08,1.3,1.61,1.91
		C-408.56,188.33-404.36,204.15-410.69,227.28z"/>
	<path fill="none" stroke="#000000" stroke-miterlimit="10" d="M-450.74,110.88c-0.71-0.41-1.41,0.02-2.1,1.62
		c0.34-0.78,0.93-2.09,1.53-3.17C-451.12,109.83-450.93,110.35-450.74,110.88z"/>
	<path fill="none" stroke="#000000" stroke-miterlimit="10" d="M-429.52,111.91c-0.04,0.05-0.07,0.11-0.11,0.16
		c0.05-0.09,0.09-0.17,0.1-0.27L-429.52,111.91z"/>
	<path fill="none" stroke="#000000" stroke-miterlimit="10" d="M-427.33,106.98c-0.65,1.31-1.28,2.81-1.91,4.42
		c0-0.02,0.01-0.04,0.01-0.06c0.02-0.07-0.13-0.14-0.13-0.21c0.011-0.09-0.14-0.19-0.14-0.29v-0.01c0-0.17,1-0.35,1-0.52
		c0,0,0,0,0-0.01c0-0.17,0-0.34,0-0.51c0-0.01,0-0.01,0-0.01c0-0.33,0-0.67,0-0.99c0-0.01,0-0.01,0-0.01c0-0.32,1-0.64,1-0.95
		c0,0,0,0,0-0.01c0-0.15-0.075-0.3-0.005-0.45c0.07-0.15,0.005-0.3,0.005-0.44v-0.01c0-0.01,0.04-0.02,0.05-0.03
		c0.021,0.01,0.045,0.03,0.055,0.04L-427.33,106.98z"/>
	<path stroke="#000000" stroke-miterlimit="10" d="M-525.802,199.758c0,0,45.8,2.502,31.075,39.174
		c-2.495,6.216-1.711,11.55-16.653,29.366c-3.208,3.824-9.683,7.241-12.979,10.416c-15.107,14.549-8.439,17.738-10.767,17.558
		c-5.034-0.391-15.914-19.45-22.562-33.394c-5.198-10.907-8.492-24.043-9.48-33.306
		C-571.336,190.427-525.802,199.758-525.802,199.758z"/>
	<path fill="none" stroke="#000000" stroke-miterlimit="10" d="M-485.726,299.331c0,0,17.191-0.761,13.385,8.583
		c-0.646,1.583-2.12,4.737-4.862,7.628c-2.835,2.99-6.675,5.628-8.583,5.625c-1.897-0.003-5.813-2.369-8.931-5.556
		c-2.439-2.493-4.271-5.584-5.064-7.804C-503.132,298.426-485.726,299.331-485.726,299.331z"/>
	<g>
		<path fill="none" stroke="#000000" stroke-miterlimit="10" d="M-485.725,320.625c0.27,6.458,5.395,11.451,11.463,11.165"/>
		<path fill="none" stroke="#000000" stroke-miterlimit="10" d="M-485.364,320.833c-0.382,6.213-5.666,10.76-11.815,10.167"/>
	</g>
	<path fill="none" stroke="#000000" stroke-miterlimit="10" d="M-417.968,230.567c-2.033,5.229-6.848,10.772-10.756,12.379
		l-36.561,15.036c-3.909,1.607-5.43-1.33-3.398-6.559l5.826-14.992c2.031-5.229,6.847-10.771,10.755-12.378l36.562-15.037
		c3.908-1.607,5.429,1.331,3.397,6.56L-417.968,230.567z"/>
	<path fill="none" stroke="#000000" stroke-miterlimit="10" d="M-415.278,230.215c-2.277,5.856-7.669,12.063-12.045,13.863
		l-40.942,16.838c-4.377,1.8-6.081-1.489-3.805-7.345l6.524-16.789c2.274-5.855,7.667-12.062,12.044-13.861l40.943-16.839
		c4.376-1.8,6.08,1.491,3.805,7.346L-415.278,230.215z"/>
	<ellipse stroke="#000000" stroke-miterlimit="10" cx="-440.89" cy="233.891" rx="3.223" ry="13.855"/>
	<path fill="none" stroke="#000000" stroke-miterlimit="10" d="M-553.799,230.155c1.937,5.266,6.649,10.896,10.526,12.573
		l36.278,15.708c3.878,1.679,5.453-1.23,3.518-6.495l-5.548-15.098c-1.935-5.265-6.647-10.896-10.525-12.573l-36.279-15.708
		c-3.877-1.679-5.452,1.23-3.517,6.496L-553.799,230.155z"/>
	
		<ellipse transform="matrix(-0.9998 -0.0184 0.0184 -0.9998 -1066.0999 457.9874)" fill="none" stroke="#000000" stroke-miterlimit="10" cx="-530.942" cy="233.9" rx="3.223" ry="13.855"/>
	<path fill="none" stroke="#000000" stroke-width="5" stroke-linecap="round" stroke-linejoin="round" stroke-miterlimit="10" d="
		M-564.341,202.652c15.354,11.505,54.579-8.081,90.117-45.899"/>
	<path fill="none" stroke="#000000" stroke-miterlimit="10" d="M-422.85,101.5c-0.18,0-0.37,0.04-0.55,0.11
		c-1.29,0.45-2.65,2.31-3.96,4.98c-0.01-0.05-0.03-0.09-0.04-0.09h-0.01c-0.05,0-0.09,0.07-0.14,0.04
		c-0.16-0.12-0.35-0.17-0.51-0.28c0.07,0.05,0.13,0.11,0.2,0.17c-0.07-0.02-0.14-0.04-0.2-0.08c0.21,0.16,0.41,0.33,0.59,0.52
		c0.01,0.01-0.03,0.03-0.03,0.04v0.01c0,0.14,0,0.29,0,0.44c0,0,0,0,0,0.01c0,0.14,0,0.29,0,0.45c0,0.01,0,0.01,0,0.01
		c0,0.31-1,0.62-1,0.95c0,0,0,0,0,0.01c0,0.32,0,0.65,0,0.99c0,0,0,0,0,0.01c0,0.17-0.399,0.34-0.49,0.51
		c-0.08,0.17-0.51,0.35-0.51,0.52v0.02c0,0.19,0.11,0.37,0,0.56v0.01c0,0.05,0,0.1-0.01,0.15c-0.01,0.05-0.01,0.1-0.03,0.15
		c-0.01,0.12-0.05,0.24-0.09,0.36c0.04-0.05,0.07-0.11,0.11-0.16l0.02,0.16c0,0,0,0,0,0.01v0.04c0,0-0.01,0.05-0.01,0.06
		c-4.25,11.06-8.25,27.09-10.69,28.09c-0.03,0.02-0.07,0.23-0.11,0.23c-0.01,0-0.01,0-0.02,0c-0.04,0-0.07-0.17-0.11-0.17
		s-0.07-0.19-0.11-0.2c-0.04-0.01-0.08-0.02-0.12-0.04c-2.54-1.03-6.21-18.33-10.07-29.21c-0.19-0.53-0.38-1.05-0.57-1.55
		c-2.15-5.65-4.34-8.99-6.42-6.15c0-0.23,5.73-7.18,20.06-5.51C-432.8,98.24-429.88,98.08-422.85,101.5z"/>
	<path fill="none" stroke="#000000" stroke-miterlimit="10" d="M-429.18,110.82c0.1-0.17,0.19-0.35,0.27-0.52c0,0.01,0,0.01,0,0.01
		C-428.99,110.48-429.08,110.65-429.18,110.82z"/>
	<path fill="none" stroke="#000000" stroke-miterlimit="10" d="M-427.43,106.84l0.01,0.01c0,0-0.01,0.01-0.01,0.02v0.01
		c0,0.01-0.01,0.02-0.01,0.03c0.01-0.01,0.01-0.03,0-0.04c-0.18-0.19-0.41-0.36-0.62-0.52c0.06,0.04,0.13,0.06,0.2,0.08
		C-427.71,106.56-427.56,106.71-427.43,106.84z"/>
	<path fill="none" stroke="#000000" stroke-miterlimit="10" d="M-427.36,106.59c-0.02,0.02-0.03,0.05-0.04,0.07
		c0,0-0.01-0.16,0-0.16C-427.39,106.5-427.37,106.54-427.36,106.59z"/>
	<path fill="none" stroke="#000000" stroke-miterlimit="10" d="M-422.76,101.55c-1.48,0.13-3.01,2.23-4.55,5.38
		c-0.01-0.01-0.02-0.02-0.03-0.02c-0.02-0.03-0.04-0.05-0.06-0.06c-0.01-0.01-0.085-0.02-0.085-0.02
		c0.02-0.04-0.015-0.09-0.015-0.13v-0.01c1-2.63,2.735-4.59,4.015-5.08c0.18-0.07,0.413-0.11,0.592-0.11
		C-422.862,101.52-422.79,101.54-422.76,101.55z"/>
	<path fill="none" stroke="#000000" stroke-miterlimit="10" d="M-429.52,111.91c-0.04,0.05-0.07,0.11-0.11,0.16
		c0.04-0.12,0.08-0.24,0.09-0.36l0.01,0.08v0.01L-429.52,111.91z"/>
	<path fill="none" stroke="#000000" stroke-miterlimit="10" d="M-427.395,106.75c-0.01,0.03,0.022,0.12,0.022,0.14
		c0,0.01,0.011,0.01,0.011,0.02c-0.01,0.01,0,0.03-0.009,0.04c-0.64,1.29-1.245,2.81-1.865,4.39c0,0.01-0.007,0.01-0.007,0.02
		c0.02-0.08-0.128-0.15-0.119-0.23c0.01-0.09-0.139-0.19-0.139-0.29v-0.02c0-0.17,0.43-0.35,0.51-0.52
		c0.091-0.17,0.49-0.34,0.49-0.51c0-0.01,0-0.01,0-0.01c0-0.34,0-0.67,0-0.99c0-0.01,0-0.01,0-0.01c0-0.33,1-0.64,1-0.95
		c0,0,0,0,0-0.01c0-0.15,0-0.3,0-0.45c0-0.01,0-0.01,0-0.01c0-0.15,0-0.29,0-0.43v-0.02c0-0.01,0-0.01,0-0.02v-0.39l0,0l0,0h0.06
		c-0.18,0-0.41-0.175-0.62-0.335c0.06,0.04,0.13,0.152,0.2,0.173c0.1,0.02,0.21,0.076,0.31,0.156c0.05,0.03,0.09,0.006,0.14,0.006
		h0.01c0.01,0-0.055,0.04-0.045,0.09c0.01,0.03-0.055,0.07-0.055,0.1v0.01C-427.5,106.72-427.405,106.74-427.395,106.75z"/>
	<path fill="none" stroke="#000000" stroke-miterlimit="10" d="M-421.97,101.94c-0.27-0.13-0.53-0.26-0.78-0.39"/>
	
		<ellipse transform="matrix(0.7659 -0.6429 0.6429 0.7659 -311.0475 -235.1233)" fill="none" stroke="#000000" stroke-miterlimit="10" cx="-478.438" cy="309.625" rx="4.688" ry="1.625"/>
	
		<ellipse transform="matrix(-0.7659 -0.6429 0.6429 -0.7659 -1070.4423 229.5393)" fill="none" stroke="#000000" stroke-miterlimit="10" cx="-493.438" cy="309.625" rx="4.688" ry="1.625"/>
	<path fill="none" stroke="#000000" stroke-miterlimit="10" d="M-481.847,311.639c0,2.687,1.844,4.861,4.122,4.861"/>
	<path fill="none" stroke="#000000" stroke-miterlimit="10" d="M-489.725,312.639c0,2.687-1.844,4.861-4.122,4.861"/>
	<g>
		<path fill="#FFFFFF" stroke="#D4145A" stroke-width="5" stroke-miterlimit="10" d="M565.5,600.617
			c0,13.742-11.141,24.883-24.883,24.883H50.383c-13.742,0-24.883-11.141-24.883-24.883V110.383
			C25.5,96.641,36.641,85.5,50.383,85.5h490.234c13.742,0,24.883,11.141,24.883,24.883V600.617z"/>
		<path fill="none" stroke="#D4145A" stroke-width="5" stroke-miterlimit="10" d="M269.2,252.92c-7.3,0.521-15.38,1.42-23.82,2.84
			c4.38-8.64,6.34-20.96,3.48-38.54c-2.48-15.279-8.2-36.54-15.82-53.7c-9.74-21.92-21.98-38.199-27.9-38.22
			c-5.979,0-17.96,18.141-26.819,38.7c-8.561,19.88-13.16,41.58-15.181,52.48c-7.68,41.5,11.98,54.039,26.88,57.72
			c-9.939,5.64-19.039,12.7-26.5,21.52c-14.399-10.899-25.26-31.979-17.76-72.52c2.86-15.48,9.4-46.3,21.561-74.561
			c12.58-29.18,29.6-54.979,38.1-54.979c8.42,0.04,25.8,23.16,39.64,54.32c10.82,24.359,18.94,54.579,22.46,76.279
			C269.3,235.18,269.76,244.66,269.2,252.92z"/>
		<path fill="none" stroke="#D4145A" stroke-width="5" stroke-miterlimit="10" d="M370.52,160.76c-1.42-0.819-2.82,0.04-4.199,3.24
			c-8.561,19.88-13.16,41.58-15.18,52.48c-3.301,17.779-1.561,30.26,2.66,38.979c-8.242-1.32-16.02-2.1-22.9-2.56
			c-0.459-8.521,0.199-18.341,2.299-29.7c2.859-15.48,9.4-46.3,21.561-74.561c0.6-1.38,1.201-2.46,1.779-3.279
			c4.16-5.681,8.541,1,12.84,12.3C369.76,158.66,370.141,159.7,370.52,160.76z"/>
		<path fill="none" stroke="#D4145A" stroke-width="5" stroke-miterlimit="10" d="M412.941,162.6l0.02,0.221
			c-0.082,0.1-0.141,0.22-0.221,0.319c0.08-0.239,0.16-0.479,0.18-0.72c0.041-0.1,0.041-0.2,0.061-0.3c0.02,0.16,0,0.32-0.039,0.46
			V162.6z"/>
		<path fill="none" stroke="#D4145A" stroke-width="5" stroke-miterlimit="10" d="M437,294.66c-1.039-1.22-2.121-2.54-3.24-3.82
			c-0.381-0.42-0.74,0.91-1.119,0.49c-0.5-0.54-1,0.17-1.52,0.17H431.1c-0.26,0-0.52-1.83-0.76-1.99
			c-0.199-0.12-0.398-1.135-0.6-1.314c-0.201-0.2-0.381-0.817-0.58-0.998c-0.379-0.399-0.781-1.059-1.18-1.398
			c-0.539-0.48-1.102-0.829-1.641-1.289c-1.84-1.54-3.74-3.035-5.68-4.415c-0.061-0.04-0.141-0.127-0.24-0.188
			c-2.639-1.86-5.361-3.573-8.16-5.193c-0.42-0.26-0.84-0.507-1.279-0.747c-0.121-0.08-0.262-0.143-0.381-0.223
			c0.779-0.221,1.561-0.443,2.361-0.703c5.219-1.76,10.639-4.701,15.119-9.561c0,0,0.02,0,0-0.021c0.701-0.74,1.361-1.54,1.979-2.38
			c0.32-0.42,0.641-0.86,0.941-1.3c0.58-0.82,1.1-1.681,1.6-2.58c0.279-0.46,0.521-0.94,0.76-1.44c0.24-0.479,0.48-0.979,0.721-1.5
			c0.16-0.359,0.32-0.7,0.459-1.08c3.541-8.439,4.902-20.06,2.32-35.979c-0.16-0.96-0.32-1.92-0.5-2.92
			c-0.02-0.101-0.039-0.2-0.059-0.3c-2.422-16.2-6.48-48.78-18.961-61.021c-1.301,2.62-2.559,5.62-3.82,8.84
			c0-0.04,0.02-0.08,0.02-0.12c0.041-0.14-2.01-0.279-2.01-0.42c0.021-0.18-2.029-0.38-2.029-0.58v-0.02c0-0.34,2-0.7,2-1.04
			c0,0,0,0,0-0.021c0-0.34,0-0.68,0-1.02c0-0.021,0-0.021,0-0.021c0-0.659,0-1.34,0-1.979c0-0.021,0-0.021,0-0.021
			c0-0.64,2-1.279,2-1.899c0,0,0,0,0-0.021c0-0.3-0.15-0.6-0.01-0.899c0.139-0.3,0.01-0.601,0.01-0.88v-0.04
			c0-0.021,1.83-0.061,1.811-0.08c0.02-0.021,0.924-0.04,0.924-0.061c0-0.12,0.453,1.511,0.473,1.49c0.02,0,0.473,1.33,0.473,1.33
			h-3.68v-3.18c0-0.04,1.891-0.101,1.93-0.141c2.621-5.34,6.266-7.31,8.846-8.21c0.359-0.14,1.666,1.53,2.025,1.53h0.199
			c2.039,0,4.059-0.05,5.941,4.19c10.818,24.359,18.959,53.505,22.479,75.204C461.24,263.875,450.961,283.6,437,294.66z"/>
		<path fill="none" stroke="#D4145A" stroke-width="5" stroke-miterlimit="10" d="M450.621,393.56
			C443.5,419.58,427.24,471.42,397.02,518.9C365.74,568.02,323.4,611.38,302.36,611.34c-20.92-0.06-64.101-38.939-98.48-91.3
			c-26.899-40.96-47.1-91.76-55.84-128.24c-10.74-44.8-2.14-75.319,15.479-96.08c7.461-8.819,16.561-15.88,26.5-21.52
			c-14.899-3.681-34.56-16.22-26.88-57.72c2.021-10.9,6.62-32.601,15.181-52.48c8.859-20.56,20.84-38.7,26.819-38.7
			c5.92,0.021,18.16,16.3,27.9,38.22c7.62,17.16,13.34,38.421,15.82,53.7c2.859,17.58,0.899,29.9-3.48,38.54
			c8.44-1.42,16.521-2.319,23.82-2.84c19.76-1.479,33.819-0.4,33.819-0.4s11.341-0.739,27.881,0.381
			c6.881,0.46,14.658,1.239,22.9,2.56c-4.221-8.72-5.961-21.2-2.66-38.979c2.02-10.9,6.619-32.601,15.18-52.48
			c1.379-3.2,2.779-4.06,4.199-3.24c7.721,21.76,15.061,56.36,20.141,58.42c0.08,0.04,0.16,0.061,0.24,0.08
			c0.08,0.021,0.139,3.15,0.221,3.15c0.078,0,0.139,3.09,0.219,3.09c0.02,0,0.02,0,0.039,0c0.082,0,0.16-3.17,0.221-3.21
			c4.881-2,10.131-35.435,18.631-57.555c0-0.021-2.73-1.495-2.73-1.495v-0.08c0-0.021,0-0.021,0-0.021v-0.56c0-0.14,0.02-0.3,0-0.46
			c0.02-0.101,0-0.2,0-0.3V161.8c2-0.38,3.191-0.74,3.391-1.12c0,0.2,1.355,0.4,1.334,0.58c0,0.141,0.668,0.28,0.627,0.42
			c0,0.04,0.324,0.08,0.324,0.12c1.262-3.22,2.691-6.22,3.992-8.84c12.48,12.24,16.625,44.82,19.047,61.021
			c0.02,0.1,0.082,0.199,0.102,0.3c0.141,1.06,0.322,2.04,0.463,2.939c2.559,15.88,1.229,27.5-2.249,35.96
			c-0.141,0.38-0.292,0.721-0.452,1.08c-0.242,0.521-0.479,1.021-0.719,1.5c-0.24,0.5-0.5,0.98-0.76,1.44
			c-0.5,0.899-1.02,1.76-1.6,2.58c-0.301,0.439-0.621,0.88-0.941,1.3c-0.617,0.84-1.277,1.64-1.979,2.38c0.02,0.021,0,0.021,0,0.021
			c-4.459,4.92-9.881,7.92-15.119,9.699c-0.68,0.221-1.32,3.391-1.98,3.53c-0.121,0.021-0.262,2.79-0.381,2.79
			c-0.02,0-0.02,0-0.041,0c0.562,0,1.141-2.31,1.701-2.05c2.799,1.26,5.521,1.765,8.16,3.805c0.1,0.061,0.18-0.567,0.24-0.527
			c1.939,1.54,3.84,2.796,5.68,4.316c0.539,0.46,1.102,0.288,1.641,0.728c0.398,0.36,0.779,0.694,1.18,1.074
			c0.199,0.2,0.379,0.357,0.58,0.518c0.201,0.18,0.4,3.048,0.6,3.168c0.24,0.16,0.5,2.969,0.76,2.969h0.021
			c0.52,0,1.02-1.71,1.52-1.17c0.379,0.42,0.738-0.535,1.119-0.115c1.1,1.28,2.16,1.913,3.221,3.133
			C454.879,316.348,463.281,347.3,450.621,393.56z"/>
		<path fill="none" stroke="#D4145A" stroke-width="5" stroke-miterlimit="10" d="M370.52,160.76c-1.42-0.819-2.82,0.04-4.199,3.24
			c0.68-1.56,1.859-4.18,3.059-6.34C369.76,158.66,370.141,159.7,370.52,160.76z"/>
		<path fill="none" stroke="#D4145A" stroke-width="5" stroke-miterlimit="10" d="M412.961,162.82
			c-0.082,0.1-0.141,0.22-0.221,0.319c0.1-0.18,0.18-0.34,0.201-0.54L412.961,162.82z"/>
		<path fill="none" stroke="#D4145A" stroke-width="5" stroke-miterlimit="10" d="M417.34,152.96c-1.301,2.62-2.559,5.62-3.82,8.84
			c0-0.04,0.02-0.08,0.02-0.12c0.041-0.14-2.01-0.279-2.01-0.42c0.021-0.18-2.029-0.38-2.029-0.58v-0.02c0-0.34,2-0.7,2-1.04
			c0,0,0,0,0-0.021c0-0.34,0-0.68,0-1.02c0-0.021,0-0.021,0-0.021c0-0.659,0-1.34,0-1.979c0-0.021,0-0.021,0-0.021
			c0-0.64,2-1.279,2-1.899c0,0,0,0,0-0.021c0-0.3-0.15-0.6-0.01-0.899c0.139-0.3,0.01-0.601,0.01-0.88v-0.021
			c0-0.02,1.83-0.04,1.85-0.06c0.041,0.02,0.965,0.06,0.986,0.08L417.34,152.96z"/>
		<path fill="#D4145A" stroke="#D4145A" stroke-width="5" stroke-miterlimit="10" d="M220.396,338.516c0,0,91.6,5.005,62.149,78.349
			c-4.99,12.432-3.423,23.101-33.306,58.731c-6.415,7.648-19.365,14.481-25.957,20.831c-30.214,29.099-16.878,35.476-21.533,35.116
			c-10.068-0.782-31.828-38.899-45.123-66.787c-10.396-21.813-16.983-48.087-18.96-66.612
			C129.327,319.854,220.396,338.516,220.396,338.516z"/>
		<path fill="#D3427D" stroke="#D4145A" stroke-width="5" stroke-miterlimit="10" d="M300.548,537.661
			c0,0,34.382-1.522,26.771,17.167c-1.291,3.167-4.24,9.475-9.724,15.256c-5.671,5.979-13.35,11.256-17.166,11.25
			c-3.794-0.006-11.627-4.738-17.862-11.112c-4.879-4.986-8.542-11.168-10.128-15.608
			C265.735,535.853,300.548,537.661,300.548,537.661z"/>
		<g>
			<path fill="none" stroke="#D4145A" stroke-width="5" stroke-miterlimit="10" d="M300.55,580.25
				c0.539,12.915,10.79,22.902,22.927,22.329"/>
			<path fill="none" stroke="#D4145A" stroke-width="5" stroke-miterlimit="10" d="M301.271,580.666
				c-0.764,12.426-11.331,21.521-23.631,20.334"/>
		</g>
		<g>
			<path fill="#D4145A" d="M444.759,356.153c4.861,0,6.266,5.479,2.956,13.999l-11.65,29.982
				c-4.066,10.459-13.697,21.545-21.512,24.758l-73.121,30.072c-1.449,0.596-2.734,0.879-3.84,0.879
				c-4.862,0-6.267-5.477-2.955-13.997l11.65-29.984c4.062-10.457,13.693-21.543,21.51-24.756l73.123-30.074
				C442.368,356.437,443.653,356.153,444.759,356.153 M444.759,351.153L444.759,351.153c-1.784,0-3.716,0.422-5.741,1.255
				l-73.122,30.074c-9.048,3.719-19.708,15.829-24.269,27.569l-11.65,29.984c-2.781,7.156-2.86,12.972-0.228,16.82
				c1.76,2.571,4.545,3.987,7.843,3.987c1.784,0,3.716-0.422,5.741-1.255l73.121-30.073c9.045-3.718,19.706-15.829,24.271-27.57
				l11.65-29.983c2.78-7.157,2.858-12.974,0.225-16.823C450.84,352.569,448.056,351.153,444.759,351.153L444.759,351.153z"/>
		</g>
		<g>
			<path fill="#D4145A" d="M390.221,436.992c-8.696,0-8.947-27.118-8.947-30.21s0.251-30.21,8.947-30.21s8.947,27.118,8.947,30.21
				S398.917,436.992,390.221,436.992z"/>
			<path fill="#D4145A" d="M390.221,379.072c3.561,0,6.447,12.406,6.447,27.71s-2.887,27.71-6.447,27.71s-6.447-12.406-6.447-27.71
				S386.66,379.072,390.221,379.072 M390.221,374.072c-6.641,0-8.739,9.019-9.429,11.983c-1.302,5.594-2.019,12.956-2.019,20.727
				s0.717,15.133,2.019,20.727c0.689,2.964,2.788,11.983,9.429,11.983s8.739-9.019,9.429-11.983
				c1.302-5.594,2.019-12.956,2.019-20.727s-0.717-15.133-2.019-20.727C398.96,383.091,396.861,374.072,390.221,374.072
				L390.221,374.072z"/>
		</g>
		<g>
			<path fill="#F15A24" d="M390.221,436.992c-1.729,0-5.779,0-5.779-30.21s4.05-30.21,5.779-30.21s5.779,0,5.779,30.21
				S391.95,436.992,390.221,436.992z"/>
			<path fill="#D4145A" d="M390.221,379.072c1.811,0,3.279,12.406,3.279,27.71s-1.469,27.71-3.279,27.71s-3.279-12.406-3.279-27.71
				S388.41,379.072,390.221,379.072 M390.221,374.072c-5.801,0-6.658,7.241-7.284,12.528c-0.642,5.423-0.995,12.59-0.995,20.182
				s0.354,14.758,0.995,20.182c0.626,5.287,1.483,12.528,7.284,12.528s6.658-7.241,7.284-12.528
				c0.642-5.423,0.995-12.59,0.995-20.182s-0.354-14.758-0.995-20.182C396.879,381.313,396.021,374.072,390.221,374.072
				L390.221,374.072z"/>
		</g>
		<path fill="none" stroke="#D4145A" stroke-width="13" stroke-linecap="round" stroke-linejoin="round" stroke-miterlimit="10" d="
			M143.317,344.304c20.56,15.405,80.675,25.541,123.384-12.304c40.943-36.28,33.359-54.498,56.85-79.495"/>
		<path fill="none" stroke="#D4145A" stroke-width="5" stroke-miterlimit="10" d="M426.301,142c-0.359,0-0.742,0.08-1.102,0.22
			c-2.578,0.9-5.299,6.37-7.918,11.71c-0.021-0.1-0.062,1.57-0.082,1.57h-0.02c-0.1,0-0.18-1.61-0.279-1.67
			c-0.32-0.24-0.701-1.215-1.021-1.436c0.141,0.101,0.262-0.217,0.402-0.097c-0.141-0.04-0.281-0.299-0.402-0.379
			c0.422,0.319-0.93,0.551-0.568,0.931c0.02,0.02-1.811-0.05-1.811-0.029v0.02c0,0.28,0,0.58,0,0.88c0,0,0,0,0,0.021
			c0,0.279,0,0.58,0,0.899c0,0.021,0,0.021,0,0.021c0,0.62-2,1.24-2,1.899c0,0,0,0,0,0.021c0,0.64,0,1.3,0,1.979c0,0,0,0,0,0.021
			c0,0.34-0.799,0.68-0.98,1.02c-0.16,0.341-1.02,0.7-1.02,1.04v0.04c0,0.38,2,0.74,0,1.12v0.021c0,0.1,1.75,0.199,1.73,0.3
			c-0.02,0.1,0.855,0.2,0.814,0.3c-0.02,0.24,0.338,0.48,0.258,0.72c0.08-0.1-1.393-0.22-1.311-0.319l-1.492,0.319c0,0,0,0,0,0.021
			v0.08c0,0,1.73,0.1,1.73,0.12c-8.5,22.12-15.625,55.93-20.506,57.93c-0.061,0.04,0.736,2.21,0.654,2.21c-0.02,0-0.02,0-0.039,0
			c-0.08,0-0.141-2.09-0.219-2.09c-0.082,0-0.141-1.255-0.221-1.275c-0.08-0.02-0.16-0.478-0.24-0.518
			c-5.08-2.06-12.42-36.879-20.141-58.639c-0.379-1.06-0.76-2.209-1.141-3.209c-4.299-11.3-8.68-18.035-12.84-12.354
			c0-0.46,11.461-14.388,40.121-11.048C406.4,135.508,412.24,135.16,426.301,142z"/>
		<path fill="none" stroke="#D4145A" stroke-width="5" stroke-miterlimit="10" d="M413.641,160.64
			c0.199-0.34,0.379-0.699,0.539-1.04c0,0.021,0,0.021,0,0.021C414.02,159.96,413.84,160.3,413.641,160.64z"/>
		<path fill="none" stroke="#D4145A" stroke-width="5" stroke-miterlimit="10" d="M417.141,152.68l0.02,0.021
			c0,0-0.02,0.02-0.02,0.04v0.02c0,0.021-0.02,0.04-0.02,0.061c0.02-0.021,0.02-0.061,0-0.08c-0.361-0.38-0.82-0.721-1.242-1.04
			c0.121,0.08,0.262,0.12,0.402,0.16C416.58,152.12,416.879,152.42,417.141,152.68z"/>
		<path fill="none" stroke="#D4145A" stroke-width="5" stroke-miterlimit="10" d="M417.281,152.18
			c-0.041,0.04-0.062,0.101-0.082,0.141c0,0-0.02-0.32,0-0.32S417.26,152.08,417.281,152.18z"/>
		<path fill="none" stroke="#D4145A" stroke-width="5" stroke-miterlimit="10" d="M426.48,142.1
			c-2.961,0.261-6.02,4.46-9.102,10.761c-0.02-0.021-0.039-0.04-0.059-0.04c-0.039-0.061-0.08-0.101-0.121-0.12
			c-0.02-0.021-1.918-0.04-1.918-0.04c0.039-0.08-1.781-0.18-1.781-0.26v-0.021c2-5.26,7.219-9.18,9.781-10.16
			c0.359-0.14,1.699-0.22,2.059-0.22C425.4,142.04,426.42,142.08,426.48,142.1z"/>
		<path fill="none" stroke="#D4145A" stroke-width="5" stroke-miterlimit="10" d="M412.961,162.82
			c-0.082,0.1-0.141,0.22-0.221,0.319c0.08-0.239,0.16-0.479,0.18-0.72l0.021,0.16v0.02L412.961,162.82z"/>
		<path fill="none" stroke="#D4145A" stroke-width="5" stroke-miterlimit="10" d="M415.461,152.5c-0.02,0.06,0.918,0.24,0.918,0.28
			c0,0.02,0.461,0.02,0.461,0.04c-0.02,0.02-0.779,0.06-0.799,0.08c-1.279,2.58-4.541,5.619-4.541,8.779c0,0.021,0,0.021,0,0.04
			c0-0.16-1-0.3-0.98-0.46c0.021-0.18-1.02-0.38-1.02-0.58v-0.04c0-0.34,0.859-0.699,1.02-1.04c0.182-0.34,0.98-0.68,0.98-1.02
			c0-0.021,0-0.021,0-0.021c0-0.68,0-1.34,0-1.979c0-0.021,0-0.021,0-0.021c0-0.659,2-1.279,2-1.899c0,0,0,0,0-0.021
			c0-0.3,0-0.6,0-0.899c0-0.021,0-0.021,0-0.021c0-0.3,0-0.58,0-0.859v-0.04c0-0.021,0-0.021,0-0.04v2.72l0,0l0,0h3.621
			c-0.361,0-0.82-2.101-1.242-2.42c0.121,0.08,0.262-0.57,0.402-0.529c0.199,0.039,0.418,1.464,0.619,1.624
			c0.1,0.06,0.18,1.325,0.279,1.325h0.02c0.02,0-1.859-1.67-1.84-1.57c0.02,0.061-1.859-1.609-1.859-1.55v0.021
			C413.5,152.44,415.441,152.48,415.461,152.5z"/>
		<path fill="none" stroke="#D4145A" stroke-width="5" stroke-miterlimit="10" d="M428.059,142.88
			c-0.539-0.26-1.059-0.52-1.559-0.78"/>
		
			<ellipse transform="matrix(0.7659 -0.6429 0.6429 0.7659 -285.1563 333.2845)" fill="#F7931E" stroke="#D4145A" stroke-width="5" stroke-miterlimit="10" cx="315.125" cy="558.25" rx="9.375" ry="3.251"/>
		
			<ellipse transform="matrix(-0.7659 -0.6429 0.6429 -0.7659 144.6048 1169.1455)" fill="#F7931E" stroke="#D4145A" stroke-width="5" stroke-miterlimit="10" cx="285.125" cy="558.25" rx="9.375" ry="3.25"/>
		<path fill="none" stroke="#D4145A" stroke-width="5" stroke-miterlimit="10" d="M308.306,562.277c0,5.374,3.688,9.723,8.244,9.723
			"/>
		<path fill="none" stroke="#D4145A" stroke-width="5" stroke-miterlimit="10" d="M292.55,564.277c0,5.374-3.688,9.723-8.244,9.723"
			/>
	</g>
</g>
</svg>
