<?xml version="1.0" encoding="utf-8"?>
<!-- Generator: Adobe Illustrator 16.0.4, SVG Export Plug-In . SVG Version: 6.00 Build 0)  -->
<!DOCTYPE svg PUBLIC "-//W3C//DTD SVG 1.1//EN" "http://www.w3.org/Graphics/SVG/1.1/DTD/svg11.dtd">
<svg version="1.1" xmlns="http://www.w3.org/2000/svg" xmlns:xlink="http://www.w3.org/1999/xlink" x="0px" y="0px" width="612px"
	 height="792px" viewBox="0 0 612 792" enable-background="new 0 0 612 792" xml:space="preserve">
<g id="Layer_1" display="none">
</g>
<g id="Layer_2">
	<g>
		<path fill="#FFFFFF" stroke="#D4145A" stroke-width="2" stroke-miterlimit="10" d="M430,344.559
			c0,6.871-5.57,12.441-12.441,12.441H172.441C165.57,357,160,351.43,160,344.559V99.441C160,92.57,165.57,87,172.441,87h245.117
			C424.43,87,430,92.57,430,99.441V344.559z"/>
		<path fill="none" stroke="#D4145A" stroke-width="2" stroke-miterlimit="10" d="M280.6,171.96c-3.65,0.26-7.69,0.71-11.91,1.42
			c2.19-4.32,3.17-10.48,1.74-19.27c-1.24-7.64-4.1-18.27-7.91-26.85c-4.87-10.96-10.99-19.1-13.95-19.11
			c-2.99,0-8.98,9.07-13.41,19.35c-4.28,9.94-6.58,20.79-7.59,26.24c-3.84,20.75,5.99,27.02,13.44,28.86
			c-4.97,2.82-9.52,6.35-13.25,10.76c-7.2-5.45-12.63-15.99-8.88-36.26c1.43-7.74,4.7-23.15,10.78-37.28
			c6.29-14.59,14.8-27.49,19.05-27.49c4.21,0.02,12.9,11.58,19.82,27.16c5.41,12.18,9.47,27.29,11.23,38.14
			C280.65,163.09,280.88,167.83,280.6,171.96z"/>
		<path fill="none" stroke="#D4145A" stroke-width="2" stroke-miterlimit="10" d="M331.26,125.88c-0.71-0.41-1.41,0.02-2.1,1.62
			c-4.28,9.94-6.58,20.79-7.59,26.24c-1.65,8.89-0.78,15.13,1.33,19.49c-4.121-0.66-8.01-1.05-11.45-1.28
			c-0.229-4.26,0.1-9.17,1.149-14.85c1.43-7.74,4.7-23.15,10.78-37.28c0.3-0.69,0.601-1.23,0.89-1.64c2.08-2.84,4.271,0.5,6.42,6.15
			C330.88,124.83,331.07,125.35,331.26,125.88z"/>
		<path fill="none" stroke="#D4145A" stroke-width="2" stroke-miterlimit="10" d="M352.471,126.8l0.01,0.11
			c-0.041,0.05-0.07,0.11-0.11,0.16c0.04-0.12,0.08-0.24,0.09-0.36c0.021-0.05,0.021-0.1,0.03-0.15c0.01,0.08,0,0.16-0.02,0.23
			V126.8z"/>
		<path fill="none" stroke="#D4145A" stroke-width="2" stroke-miterlimit="10" d="M364.5,192.83c-0.52-0.61-1.061-1.27-1.62-1.91
			c-0.19-0.21-0.37-0.17-0.56-0.38c-0.25-0.27-0.5-0.54-0.76-0.54h-0.011c-0.13,0-0.26-0.29-0.38-0.37
			c-0.1-0.06-0.199-0.255-0.3-0.345c-0.101-0.1-0.19-0.252-0.29-0.343c-0.189-0.2-0.391-0.451-0.59-0.621
			c-0.27-0.24-0.551-0.375-0.82-0.605c-0.92-0.77-1.87-1.498-2.84-2.188c-0.03-0.02-0.07-0.054-0.12-0.084
			c-1.319-0.93-2.681-1.782-4.08-2.592c-0.21-0.13-0.42-0.251-0.64-0.371c-0.061-0.04-0.131-0.07-0.19-0.11
			c0.39-0.11,0.78-0.22,1.181-0.35c2.609-0.88,5.319-2.351,7.56-4.78c0,0,0.01,0,0-0.01c0.351-0.37,0.681-0.77,0.989-1.19
			c0.16-0.21,0.32-0.43,0.471-0.65c0.29-0.41,0.55-0.84,0.8-1.29c0.14-0.23,0.261-0.47,0.38-0.72c0.12-0.24,0.24-0.49,0.36-0.75
			c0.08-0.18,0.16-0.35,0.229-0.54c1.771-4.22,2.451-10.03,1.16-17.99c-0.08-0.48-0.16-0.96-0.25-1.46
			c-0.01-0.05-0.02-0.1-0.029-0.15c-1.211-8.1-3.24-24.39-9.48-30.51c-0.65,1.31-1.279,2.81-1.91,4.42c0-0.02,0.01-0.04,0.01-0.06
			c0.021-0.07-0.38-0.14-0.38-0.21c0.011-0.09-0.39-0.19-0.39-0.29v-0.01c0-0.17,1-0.35,1-0.52c0,0,0,0,0-0.01c0-0.17,0-0.34,0-0.51
			c0-0.01,0-0.01,0-0.01c0-0.33,0-0.67,0-0.99c0-0.01,0-0.01,0-0.01c0-0.32,1-0.64,1-0.95c0,0,0,0,0-0.01
			c0-0.15-0.075-0.3-0.005-0.45c0.069-0.15,0.005-0.3,0.005-0.44v-0.02c0-0.01,0.29-0.03,0.28-0.04c0.01-0.01,0.149-0.02,0.149-0.03
			c0-0.06,0.07,0.13,0.08,0.12c0.01,0,0.08,0.04,0.08,0.04H354v-0.34c0-0.02,0.32-0.05,0.34-0.07c1.311-2.67,2.82-4.28,4.11-4.73
			c0.18-0.07,0.521,0.14,0.7,0.14h0.1c1.02,0,2.029,0.6,2.971,2.72c5.409,12.18,9.479,27.065,11.239,37.915
			C376.62,177.125,371.48,187.3,364.5,192.83z"/>
		<path fill="none" stroke="#D4145A" stroke-width="2" stroke-miterlimit="10" d="M371.311,242.28
			c-3.561,13.01-11.69,38.93-26.801,62.67c-15.64,24.56-36.81,46.24-47.33,46.22c-10.46-0.03-32.05-19.47-49.24-45.65
			c-13.45-20.48-23.55-45.88-27.92-64.12c-5.37-22.4-1.07-37.66,7.74-48.04c3.73-4.41,8.28-7.94,13.25-10.76
			c-7.45-1.84-17.28-8.11-13.44-28.86c1.01-5.45,3.31-16.3,7.59-26.24c4.43-10.28,10.42-19.35,13.41-19.35
			c2.96,0.01,9.08,8.15,13.95,19.11c3.81,8.58,6.67,19.21,7.91,26.85c1.43,8.79,0.45,14.95-1.74,19.27
			c4.22-0.71,8.26-1.16,11.91-1.42c9.88-0.74,16.91-0.2,16.91-0.2s5.67-0.37,13.94,0.19c3.44,0.23,7.329,0.62,11.45,1.28
			c-2.11-4.36-2.98-10.6-1.33-19.49c1.01-5.45,3.31-16.3,7.59-26.24c0.689-1.6,1.39-2.03,2.1-1.62
			c3.86,10.88,7.53,28.18,10.07,29.21c0.04,0.02,0.08,0.03,0.12,0.04c0.04,0.01,0.069,0.95,0.11,0.95c0.039,0,0.069,0.92,0.109,0.92
			c0.01,0,0.01,0,0.02,0c0.041,0,0.08-0.96,0.11-0.98c2.44-1,5.69-17.405,9.94-28.465c0-0.01-0.74-0.435-0.74-0.435v-0.04
			c0-0.01,0-0.01,0-0.01v-0.28c0-0.07,0.01-0.15,0-0.23c0.01-0.05,0-0.1,0-0.15v-0.01c1-0.19,0.971-0.37,1.07-0.56
			c0,0.1,0.365,0.2,0.354,0.29c0,0.07,0.178,0.14,0.157,0.21c0,0.02,0.084,0.04,0.084,0.06c0.631-1.61,1.307-3.11,1.957-4.42
			c6.24,6.12,8.293,22.41,9.504,30.51c0.01,0.05,0.031,0.1,0.041,0.15c0.07,0.53,0.156,1.02,0.227,1.47
			c1.279,7.94,0.612,13.75-1.127,17.98c-0.07,0.19-0.148,0.36-0.229,0.54c-0.121,0.26-0.239,0.51-0.359,0.75
			c-0.12,0.25-0.25,0.49-0.38,0.72c-0.25,0.45-0.51,0.88-0.8,1.29c-0.15,0.22-0.311,0.44-0.471,0.65
			c-0.309,0.42-0.639,0.82-0.989,1.19c0.01,0.01,0,0.01,0,0.01c-2.229,2.46-4.94,3.96-7.56,4.85c-0.34,0.11-0.66,1.07-0.99,1.14
			c-0.061,0.01-0.131,0.77-0.19,0.77c-0.01,0-0.01,0-0.021,0c0.281,0,0.57-0.53,0.851-0.4c1.399,0.63,2.761,1.195,4.08,2.215
			c0.05,0.03,0.09-0.127,0.12-0.107c0.97,0.77,1.92,1.476,2.84,2.236c0.27,0.23,0.551,0.183,0.82,0.403
			c0.199,0.18,0.39,0.367,0.59,0.557c0.1,0.1,0.189,0.188,0.29,0.269c0.101,0.09,0.2,0.904,0.3,0.964
			c0.12,0.08,0.25,0.864,0.38,0.864h0.011c0.26,0,0.51-0.23,0.76,0.04c0.189,0.21,0.369,0.045,0.56,0.255
			c0.55,0.64,1.08,1.113,1.61,1.723C373.439,203.518,377.641,219.15,371.311,242.28z"/>
		<path fill="none" stroke="#D4145A" stroke-width="2" stroke-miterlimit="10" d="M331.26,125.88c-0.71-0.41-1.41,0.02-2.1,1.62
			c0.34-0.78,0.93-2.09,1.529-3.17C330.88,124.83,331.07,125.35,331.26,125.88z"/>
		<path fill="none" stroke="#D4145A" stroke-width="2" stroke-miterlimit="10" d="M352.48,126.91c-0.041,0.05-0.07,0.11-0.11,0.16
			c0.05-0.09,0.09-0.17,0.101-0.27L352.48,126.91z"/>
		<path fill="none" stroke="#D4145A" stroke-width="2" stroke-miterlimit="10" d="M354.67,121.98c-0.65,1.31-1.279,2.81-1.91,4.42
			c0-0.02,0.01-0.04,0.01-0.06c0.021-0.07-0.38-0.14-0.38-0.21c0.011-0.09-0.39-0.19-0.39-0.29v-0.01c0-0.17,1-0.35,1-0.52
			c0,0,0,0,0-0.01c0-0.17,0-0.34,0-0.51c0-0.01,0-0.01,0-0.01c0-0.33,0-0.67,0-0.99c0-0.01,0-0.01,0-0.01c0-0.32,1-0.64,1-0.95
			c0,0,0,0,0-0.01c0-0.15-0.075-0.3-0.005-0.45c0.069-0.15,0.005-0.3,0.005-0.44v-0.01c0-0.01,0.29-0.02,0.3-0.03
			c0.021,0.01,0.17,0.03,0.181,0.04L354.67,121.98z"/>
		<path fill="#D4145A" stroke="#D4145A" stroke-miterlimit="10" d="M256.198,214.758c0,0,45.8,2.502,31.075,39.174
			c-2.495,6.216-1.711,11.55-16.653,29.366c-3.208,3.824-9.683,7.241-12.979,10.416c-15.107,14.549-8.439,17.738-10.767,17.558
			c-5.034-0.391-15.914-19.45-22.562-33.394c-5.198-10.907-8.492-24.043-9.48-33.306
			C210.664,205.427,256.198,214.758,256.198,214.758z"/>
		<path fill="#D3427D" stroke="#D4145A" stroke-miterlimit="10" d="M296.274,314.331c0,0,17.191-0.761,13.385,8.583
			c-0.646,1.583-2.12,4.737-4.862,7.628c-2.835,2.99-6.675,5.628-8.583,5.625c-1.897-0.003-5.813-2.369-8.931-5.556
			c-2.439-2.493-4.271-5.584-5.064-7.804C278.868,313.426,296.274,314.331,296.274,314.331z"/>
		<g>
			<path fill="none" stroke="#D4145A" stroke-width="2" stroke-miterlimit="10" d="M296.275,335.625
				c0.27,6.458,5.395,11.451,11.463,11.165"/>
			<path fill="none" stroke="#D4145A" stroke-width="2" stroke-miterlimit="10" d="M296.636,335.833
				c-0.382,6.213-5.666,10.76-11.815,10.167"/>
		</g>
		<g>
			<path fill="#D4145A" d="M368.379,223.577c2.431,0,3.134,2.739,1.479,6.999l-5.825,14.991
				c-2.033,5.229-6.849,10.772-10.756,12.379l-36.561,15.036c-0.725,0.298-1.367,0.44-1.92,0.44c-2.432,0-3.133-2.739-1.478-6.999
				l5.825-14.992c2.031-5.229,6.847-10.771,10.755-12.378l36.562-15.037C367.185,223.718,367.826,223.577,368.379,223.577
				 M368.38,221.577L368.38,221.577c-0.827,0-1.729,0.198-2.681,0.59l-36.562,15.037c-4.412,1.813-9.621,7.745-11.858,13.503
				l-5.825,14.992c-1.328,3.417-1.386,6.165-0.167,7.946c0.784,1.146,2.029,1.776,3.509,1.776c0.826,0,1.729-0.199,2.681-0.59
				l36.561-15.036c4.411-1.813,9.62-7.745,11.859-13.504l5.825-14.991c1.327-3.418,1.385-6.166,0.165-7.948
				C371.104,222.207,369.857,221.577,368.38,221.577L368.38,221.577z"/>
		</g>
		<g>
			<path fill="#D4145A" d="M341.11,263.746c-4.176,0-4.224-14.249-4.224-14.855s0.048-14.855,4.224-14.855
				s4.224,14.249,4.224,14.855S345.286,263.746,341.11,263.746z"/>
			<path fill="#D4145A" d="M341.11,235.036c1.78,0,3.224,6.203,3.224,13.855s-1.443,13.855-3.224,13.855s-3.224-6.203-3.224-13.855
				S339.33,235.036,341.11,235.036 M341.11,233.036c-4.847,0-5.224,12.136-5.224,15.855s0.377,15.855,5.224,15.855
				s5.224-12.136,5.224-15.855S345.957,233.036,341.11,233.036L341.11,233.036z"/>
		</g>
		<g>
			<path fill="#F15A24" d="M341.11,263.746c-0.653,0-2.64,0-2.64-14.855s1.986-14.855,2.64-14.855s2.64,0,2.64,14.855
				S341.764,263.746,341.11,263.746z"/>
			<path fill="#D4145A" d="M341.11,235.036c0.905,0,1.64,6.203,1.64,13.855s-0.734,13.855-1.64,13.855s-1.64-6.203-1.64-13.855
				S340.205,235.036,341.11,235.036 M341.11,233.036c-2.456,0-2.839,3.229-3.146,5.823c-0.318,2.693-0.494,6.256-0.494,10.032
				s0.176,7.339,0.494,10.032c0.307,2.594,0.689,5.823,3.146,5.823s2.839-3.229,3.146-5.823c0.318-2.693,0.494-6.256,0.494-10.032
				s-0.176-7.339-0.494-10.032C343.949,236.265,343.566,233.036,341.11,233.036L341.11,233.036z"/>
		</g>
		<path fill="none" stroke="#D4145A" stroke-width="5" stroke-linecap="round" stroke-linejoin="round" stroke-miterlimit="10" d="
			M217.659,217.652c10.28,7.703,40.337,12.771,61.692-6.152c20.472-18.14,16.68-27.249,28.425-39.748"/>
		<path fill="none" stroke="#D4145A" stroke-width="2" stroke-miterlimit="10" d="M359.15,116.5c-0.18,0-0.371,0.04-0.551,0.11
			c-1.289,0.45-2.649,2.56-3.959,5.23c-0.011-0.05-0.031,0.16-0.041,0.16h-0.01c-0.05,0-0.09-0.18-0.14-0.21
			c-0.16-0.12-0.351-0.295-0.511-0.405c0.07,0.05,0.131,0.048,0.201,0.108c-0.07-0.02-0.141-0.071-0.201-0.111
			c0.211,0.16,0.16,0.314,0.341,0.504c0.01,0.01-0.28,0.014-0.28,0.024v0.01c0,0.14,0,0.29,0,0.44c0,0,0,0,0,0.01
			c0,0.14,0,0.29,0,0.45c0,0.01,0,0.01,0,0.01c0,0.31-1,0.62-1,0.95c0,0,0,0,0,0.01c0,0.32,0,0.65,0,0.99c0,0,0,0,0,0.01
			c0,0.17-0.399,0.34-0.49,0.51c-0.08,0.17-0.51,0.35-0.51,0.52v0.02c0,0.19,1,0.37,0,0.56v0.01c0,0.05,0.25,0.1,0.24,0.15
			c-0.01,0.05,0.115,0.1,0.095,0.15c-0.01,0.12,0.013,0.24-0.027,0.36c0.04-0.05-0.149-0.11-0.108-0.16L352,127.07c0,0,0,0,0,0.01
			v0.04c0,0,0.24,0.05,0.24,0.06c-4.25,11.06-8.125,27.34-10.565,28.34c-0.03,0.02,0.056,0.48,0.015,0.48c-0.01,0-0.01,0-0.02,0
			c-0.04,0-0.07-0.42-0.109-0.42c-0.041,0-0.07-0.315-0.11-0.325c-0.04-0.01-0.08-0.083-0.12-0.103
			c-2.54-1.03-6.21-18.361-10.07-29.241c-0.189-0.53-0.38-1.065-0.57-1.565c-2.149-5.65-4.34-8.998-6.42-6.158
			c0-0.23,5.73-7.184,20.061-5.514C349.2,113.244,352.12,113.08,359.15,116.5z"/>
		<path fill="none" stroke="#D4145A" stroke-width="2" stroke-miterlimit="10" d="M352.82,125.82c0.1-0.17,0.189-0.35,0.27-0.52
			c0,0.01,0,0.01,0,0.01C353.01,125.48,352.92,125.65,352.82,125.82z"/>
		<path fill="none" stroke="#D4145A" stroke-width="2" stroke-miterlimit="10" d="M354.57,121.84l0.01,0.01c0,0-0.01,0.01-0.01,0.02
			v0.01c0,0.01-0.01,0.02-0.01,0.03c0.01-0.01,0.01-0.03,0-0.04c-0.181-0.19-0.41-0.36-0.621-0.52c0.061,0.04,0.131,0.06,0.201,0.08
			C354.29,121.56,354.439,121.71,354.57,121.84z"/>
		<path fill="none" stroke="#D4145A" stroke-width="2" stroke-miterlimit="10" d="M354.641,121.59
			c-0.021,0.02-0.031,0.05-0.041,0.07c0,0-0.01-0.16,0-0.16S354.63,121.54,354.641,121.59z"/>
		<path fill="none" stroke="#D4145A" stroke-width="2" stroke-miterlimit="10" d="M359.24,116.55c-1.48,0.13-3.01,2.23-4.551,5.38
			c-0.01-0.01-0.02-0.02-0.029-0.02c-0.02-0.03-0.04-0.05-0.061-0.06c-0.01-0.01-0.334-0.02-0.334-0.02
			c0.02-0.04-0.266-0.09-0.266-0.13v-0.01c1-2.63,2.984-4.59,4.266-5.08c0.18-0.07,0.537-0.11,0.717-0.11
			C359.013,116.52,359.21,116.54,359.24,116.55z"/>
		<path fill="none" stroke="#D4145A" stroke-width="2" stroke-miterlimit="10" d="M352.48,126.91c-0.041,0.05-0.07,0.11-0.11,0.16
			c0.04-0.12,0.08-0.24,0.09-0.36l0.011,0.08v0.01L352.48,126.91z"/>
		<path fill="none" stroke="#D4145A" stroke-width="2" stroke-miterlimit="10" d="M354.355,121.75c-0.01,0.03,0.146,0.12,0.146,0.14
			c0,0.01,0.074,0.01,0.074,0.02c-0.01,0.01,0.157,0.03,0.147,0.04c-0.64,1.29-1.724,2.81-1.724,4.39c0,0.01,0,0.01,0,0.02
			c0-0.08-0.5-0.15-0.49-0.23c0.011-0.09-0.51-0.19-0.51-0.29v-0.02c0-0.17,0.43-0.35,0.51-0.52c0.091-0.17,0.49-0.34,0.49-0.51
			c0-0.01,0-0.01,0-0.01c0-0.34,0-0.67,0-0.99c0-0.01,0-0.01,0-0.01c0-0.33,1-0.64,1-0.95c0,0,0,0,0-0.01c0-0.15,0-0.3,0-0.45
			c0-0.01,0-0.01,0-0.01c0-0.15,0-0.29,0-0.43v-0.02c0-0.01,0-0.01,0-0.02V122l0,0l0,0h0.561c-0.181,0-0.41-0.425-0.621-0.585
			c0.061,0.04,0.131,0.027,0.201,0.048c0.1,0.02,0.209,0.263,0.31,0.343c0.05,0.03,0.09,0.194,0.14,0.194h0.01
			c0.01,0-0.305-0.21-0.295-0.16c0.01,0.03-0.305-0.18-0.305-0.15v0.01C354,121.72,354.346,121.74,354.355,121.75z"/>
		<path fill="none" stroke="#D4145A" stroke-width="2" stroke-miterlimit="10" d="M360.029,116.94c-0.27-0.13-0.529-0.26-0.779-0.39
			"/>
		
			<ellipse transform="matrix(0.7659 -0.6429 0.6429 0.7659 -137.6556 271.1626)" fill="#F7931E" stroke="#D4145A" stroke-miterlimit="10" cx="303.562" cy="324.625" rx="4.687" ry="1.625"/>
		
			<ellipse transform="matrix(-0.7659 -0.6429 0.6429 -0.7659 300.8765 758.7886)" fill="#F7931E" stroke="#D4145A" stroke-miterlimit="10" cx="288.562" cy="324.625" rx="4.688" ry="1.625"/>
		<path fill="none" stroke="#D4145A" stroke-miterlimit="10" d="M300.153,326.639c0,2.687,1.844,4.861,4.122,4.861"/>
		<path fill="none" stroke="#D4145A" stroke-miterlimit="10" d="M292.275,327.639c0,2.687-1.844,4.861-4.122,4.861"/>
	</g>
</g>
</svg>
